<?xml version="1.0" encoding="UTF-8"?>
<svg version="1.1" xmlns="http://www.w3.org/2000/svg" width="350" height="350">
<path d="M0 0 C1.52753906 1.10214844 1.52753906 1.10214844 3.0859375 2.2265625 C15.83208849 11.60609874 27.45267446 22.35671201 37 35 C37.84240602 36.04665605 38.686226 37.0921752 39.53125 38.13671875 C69.01105537 75.41243776 78.29571861 123.19629964 73.41015625 169.60546875 C69.78247512 196.24243073 58.92607776 223.33809347 43 245 C42.26523437 246.01835937 41.53046875 247.03671875 40.7734375 248.0859375 C31.39390126 260.83208849 20.64328799 272.45267446 8 282 C6.95334395 282.84240602 5.9078248 283.686226 4.86328125 284.53125 C-32.41243776 314.01105537 -80.19629964 323.29571861 -126.60546875 318.41015625 C-153.24243073 314.78247512 -180.33809347 303.92607776 -202 288 C-203.01835937 287.26523437 -204.03671875 286.53046875 -205.0859375 285.7734375 C-217.83208849 276.39390126 -229.45267446 265.64328799 -239 253 C-239.84240602 251.95334395 -240.686226 250.9078248 -241.53125 249.86328125 C-271.01105537 212.58756224 -280.29571861 164.80370036 -275.41015625 118.39453125 C-271.78247512 91.75756927 -260.92607776 64.66190653 -245 43 C-244.26523438 41.98164062 -243.53046875 40.96328125 -242.7734375 39.9140625 C-233.39390126 27.16791151 -222.64328799 15.54732554 -210 6 C-208.95334395 5.15759398 -207.9078248 4.313774 -206.86328125 3.46875 C-148.84096553 -42.41867003 -59.52548895 -43.76381019 0 0 Z " fill="#FE3131" transform="translate(276,31)"/>
<path d="M0 0 C7.92 0 15.84 0 24 0 C25.92846785 5.78540356 27.55035873 10.96450714 28.7890625 16.84375 C28.9378183 17.53891724 29.0865741 18.23408447 29.23983765 18.95031738 C29.70640916 21.13254804 30.16635025 23.31609181 30.625 25.5 C31.09131432 27.71234899 31.55915103 29.92432547 32.03158569 32.13537598 C32.45547468 34.1200172 32.87363982 36.10587838 33.29150391 38.09179688 C33.70303083 40.87624522 33.70303083 40.87624522 35 42 C35.34611328 40.43378906 35.34611328 40.43378906 35.69921875 38.8359375 C36.79408016 33.88941857 37.89623146 28.94453811 39 24 C39.32871094 22.52515137 39.32871094 22.52515137 39.6640625 21.02050781 C40.33561234 18.01300659 41.01107078 15.00640715 41.6875 12 C42.00883911 10.55826416 42.00883911 10.55826416 42.33666992 9.08740234 C42.53881104 8.19230957 42.74095215 7.2972168 42.94921875 6.375 C43.12799561 5.57835937 43.30677246 4.78171875 43.4909668 3.9609375 C44 2 44 2 45 0 C52.92 0 60.84 0 69 0 C69 20.79 69 41.58 69 63 C64.05 63 59.1 63 54 63 C53.67 48.48 53.34 33.96 53 19 C51.1128125 26.54875 51.1128125 26.54875 49.1875 34.25 C46.79166667 43.83333333 44.39583333 53.41666667 42 63 C37.05 63 32.1 63 27 63 C25.7517661 58.05693238 24.50678054 53.1130615 23.26464844 48.16845703 C22.8426638 46.4905044 22.41983059 44.81276491 21.99609375 43.13525391 C21.38311827 40.70792883 20.77331657 38.27982397 20.1640625 35.8515625 C19.97752106 35.1157193 19.79097961 34.3798761 19.5987854 33.62173462 C18.21720743 28.09658197 17.12051842 22.6025921 16 17 C15.67 32.18 15.34 47.36 15 63 C10.05 63 5.1 63 0 63 C0 42.21 0 21.42 0 0 Z " fill="#FEFAFA" transform="translate(181,144)"/>
<path d="M0 0 C16 0 16 0 19.80078125 3.5234375 C21.11621094 5.84448242 21.11621094 5.84448242 22.3125 8.375 C23.26127599 10.10831535 24.21050697 11.84138171 25.16015625 13.57421875 C25.62180176 14.46802246 26.08344727 15.36182617 26.55908203 16.28271484 C28.42921127 19.80940722 30.50632197 23.18421445 32.61889648 26.56958008 C34.77424175 30.02890761 36.88254819 33.51734899 39 37 C39.33 24.79 39.66 12.58 40 0 C44.62 0 49.24 0 54 0 C54 20.79 54 41.58 54 63 C49.05 63 44.1 63 39 63 C35.47821341 59.4161411 33.82032652 57.23503508 31.625 52.9375 C31.10035156 52.01388672 30.57570313 51.09027344 30.03515625 50.13867188 C28.32072096 47.11259031 26.66171479 44.05534973 25 41 C20.545 33.575 20.545 33.575 16 26 C15.67 38.21 15.34 50.42 15 63 C10.05 63 5.1 63 0 63 C0 42.21 0 21.42 0 0 Z " fill="#FEFBFB" transform="translate(93,144)"/>
<path d="M0 0 C5.28 0 10.56 0 16 0 C18.94421063 7.19847128 21.60549959 14.44641458 24.109375 21.80859375 C24.48104797 22.8971315 24.85272095 23.98566925 25.23565674 25.10719299 C26.01346454 27.38829349 26.78987463 29.66987101 27.56494141 31.9519043 C28.75543768 35.45349376 29.95369061 38.95236749 31.15234375 42.45117188 C31.90932567 44.67431868 32.66585249 46.8976205 33.421875 49.12109375 C33.96083405 50.6913456 33.96083405 50.6913456 34.51068115 52.2933197 C34.83812317 53.26185379 35.16556519 54.23038788 35.50292969 55.22827148 C35.93783722 56.5054026 35.93783722 56.5054026 36.38153076 57.80833435 C37 60 37 60 37 63 C31.72 63 26.44 63 21 63 C20.34 59.37 19.68 55.74 19 52 C11.74 52 4.48 52 -3 52 C-3.33 53.98 -3.66 55.96 -4 58 C-4.99 60.475 -4.99 60.475 -6 63 C-10.95 63 -15.9 63 -21 63 C-19.87480901 55.12366304 -19.87480901 55.12366304 -18.48120117 51.03369141 C-18.02018257 49.66659531 -18.02018257 49.66659531 -17.54985046 48.2718811 C-17.2175795 47.30817596 -16.88530853 46.34447083 -16.54296875 45.3515625 C-16.19873367 44.33959808 -15.8544986 43.32763367 -15.49983215 42.28500366 C-14.77231482 40.15089937 -14.04175789 38.01782916 -13.30834961 35.88574219 C-12.19444575 32.64520636 -11.09160993 29.40106236 -9.99023438 26.15625 C-9.27930339 24.07529607 -8.56773549 21.99455961 -7.85546875 19.9140625 C-7.52927048 18.95440582 -7.2030722 17.99474915 -6.86698914 17.00601196 C-4.85750187 11.18499862 -2.57721504 5.59368338 0 0 Z " fill="#FEFAFA" transform="translate(51,144)"/>
<path d="M0 0 C14.19 0 28.38 0 43 0 C43 4.29 43 8.58 43 13 C33.43 13 23.86 13 14 13 C14 16.96 14 20.92 14 25 C22.58 25 31.16 25 40 25 C40 29.29 40 33.58 40 38 C31.42 38 22.84 38 14 38 C14 41.96 14 45.92 14 50 C23.57 50 33.14 50 43 50 C43 54.29 43 58.58 43 63 C28.81 63 14.62 63 0 63 C0 42.21 0 21.42 0 0 Z " fill="#FEFDFD" transform="translate(260,144)"/>
<path d="M0 0 C4.62 0 9.24 0 14 0 C14 14.19 14 28.38 14 43 C9.71 43 5.42 43 1 43 C0.19224695 33.16703773 -0.12781475 23.4925513 -0.0625 13.625 C-0.05746427 12.29166839 -0.0529051 10.95833489 -0.04882812 9.625 C-0.03720366 6.41664644 -0.0192756 3.20831671 0 0 Z " fill="#FFF7F7" transform="translate(157,144)"/>
<path d="M0 0 C-0.52207031 0.22550537 -1.04414062 0.45101074 -1.58203125 0.68334961 C-24.18110856 10.50118431 -44.09888691 21.83300196 -62 39 C-62.72751465 39.67289063 -62.72751465 39.67289063 -63.46972656 40.359375 C-76.78986125 52.69314004 -86.86843915 67.38530683 -96 83 C-96.33 82.34 -96.66 81.68 -97 81 C-87.45436002 59.75627181 -69.41031698 39.9021819 -51 26 C-49.95334395 25.15759398 -48.9078248 24.313774 -47.86328125 23.46875 C-38.10265302 15.76210719 -12.56022211 -4.1867407 0 0 Z " fill="#373038" transform="translate(117,11)"/>
<path d="M0 0 C2.4375 1.625 2.4375 1.625 4 4 C4.5625 6.9375 4.5625 6.9375 4 10 C1.51397551 13.36344489 0.08574477 14.80057749 -4.0625 15.5625 C-7 15 -7 15 -9.375 13.4375 C-11.62340519 10.06489221 -11.56783945 7.97487617 -11 4 C-8.11188513 -0.5054592 -5.11821063 -0.73117295 0 0 Z " fill="#FFF8F8" transform="translate(168,193)"/>
<path d="M0 0 C0.66 0 1.32 0 2 0 C2.84003448 2.7481128 3.67222151 5.49819581 4.5 8.25 C4.73847656 9.02730469 4.97695313 9.80460938 5.22265625 10.60546875 C5.56103516 11.73662109 5.56103516 11.73662109 5.90625 12.890625 C6.11572266 13.58188477 6.32519531 14.27314453 6.54101562 14.98535156 C7 17 7 17 7 21 C3.04 21 -0.92 21 -5 21 C-3.7991348 13.7948088 -2.25989184 6.94540092 0 0 Z " fill="#FF3D3D" transform="translate(58,162)"/>
<path d="M0 0 C0 0.66 0 1.32 0 2 C-0.66 2 -1.32 2 -2 2 C-2 3.98 -2 5.96 -2 8 C-1.34 8 -0.68 8 0 8 C0 9.98 0 11.96 0 14 C-1.65 14 -3.3 14 -5 14 C-5 15.65 -5 17.3 -5 19 C-3.35 19 -1.7 19 0 19 C0 19.66 0 20.32 0 21 C-3.96 21 -7.92 21 -12 21 C-12 20.34 -12 19.68 -12 19 C-10.35 19 -8.7 19 -7 19 C-7 17.35 -7 15.7 -7 14 C-8.65 14 -10.3 14 -12 14 C-12 13.01 -12 12.02 -12 11 C-7.545 10.505 -7.545 10.505 -3 10 C-7.455 8.02 -7.455 8.02 -12 6 C-11 3 -11 3 -9.2578125 2.05078125 C-8.55398438 1.80714844 -7.85015625 1.56351563 -7.125 1.3125 C-6.42632812 1.06113281 -5.72765625 0.80976563 -5.0078125 0.55078125 C-3 0 -3 0 0 0 Z " fill="#FFC5C5" transform="translate(320,187)"/>
<path d="M0 0 C3.96 0 7.92 0 12 0 C10.75453595 3.73639216 9.36595047 4.18756513 6 6 C8.97 6.495 8.97 6.495 12 7 C12 7.66 12 8.32 12 9 C8.04 9 4.08 9 0 9 C0 8.01 0 7.02 0 6 C1.98 5.01 3.96 4.02 6 3 C3.03 2.505 3.03 2.505 0 2 C0 1.34 0 0.68 0 0 Z " fill="#FFD8D8" transform="translate(308,156)"/>
<path d="M0 0 C0.66 0 1.32 0 2 0 C2 1.98 2 3.96 2 6 C2.99 6 3.98 6 5 6 C5 4.02 5 2.04 5 0 C5.66 0 6.32 0 7 0 C7 1.98 7 3.96 7 6 C7.99 6 8.98 6 10 6 C10 4.02 10 2.04 10 0 C10.66 0 11.32 0 12 0 C12 2.64 12 5.28 12 8 C8.04 8 4.08 8 0 8 C0 5.36 0 2.72 0 0 Z " fill="#FFDCDC" transform="translate(308,167)"/>
<path d="M0 0 C3.96 0 7.92 0 12 0 C12 0.66 12 1.32 12 2 C10.35 2 8.7 2 7 2 C7 3.65 7 5.3 7 7 C8.65 7 10.3 7 12 7 C12 7.66 12 8.32 12 9 C8.04 9 4.08 9 0 9 C0 8.34 0 7.68 0 7 C1.65 7 3.3 7 5 7 C5 5.35 5 3.7 5 2 C3.35 2 1.7 2 0 2 C0 1.34 0 0.68 0 0 Z " fill="#FFE2E2" transform="translate(308,199)"/>
<path d="M0 0 C1.37478516 0.01740234 1.37478516 0.01740234 2.77734375 0.03515625 C3.69644531 0.04417969 4.61554688 0.05320313 5.5625 0.0625 C6.27277344 0.07410156 6.98304688 0.08570313 7.71484375 0.09765625 C8.04484375 0.75765625 8.37484375 1.41765625 8.71484375 2.09765625 C8.05484375 2.09765625 7.39484375 2.09765625 6.71484375 2.09765625 C6.71484375 4.07765625 6.71484375 6.05765625 6.71484375 8.09765625 C5.72484375 8.09765625 4.73484375 8.09765625 3.71484375 8.09765625 C3.71484375 6.11765625 3.71484375 4.13765625 3.71484375 2.09765625 C3.05484375 2.09765625 2.39484375 2.09765625 1.71484375 2.09765625 C1.71484375 4.07765625 1.71484375 6.05765625 1.71484375 8.09765625 C0.72484375 8.09765625 -0.26515625 8.09765625 -1.28515625 8.09765625 C-1.28515625 6.11765625 -1.28515625 4.13765625 -1.28515625 2.09765625 C-1.94515625 1.76765625 -2.60515625 1.43765625 -3.28515625 1.09765625 C-2.28515625 0.09765625 -2.28515625 0.09765625 0 0 Z " fill="#FF3A3A" transform="translate(311.28515625,164.90234375)"/>
<path d="M0 0 C5.445 1.485 5.445 1.485 11 3 C11 4.32 11 5.64 11 7 C9.73160474 7.50615298 8.46016898 8.00469099 7.1875 8.5 C6.47980469 8.7784375 5.77210938 9.056875 5.04296875 9.34375 C3 10 3 10 0 10 C0 9.34 0 8.68 0 8 C2.90600261 6.74335022 4.79604584 6 8 6 C8 5.34 8 4.68 8 4 C7.05125 3.855625 6.1025 3.71125 5.125 3.5625 C2 3 2 3 0 2 C0 1.34 0 0.68 0 0 Z " fill="#FFDCDC" transform="translate(308,176)"/>
<path d="M0 0 C0.33 0 0.66 0 1 0 C1 1.98 1 3.96 1 6 C1.66 6 2.32 6 3 6 C3 7.32 3 8.64 3 10 C-0.96 10 -4.92 10 -9 10 C-9 9.67 -9 9.34 -9 9 C-4.545 8.505 -4.545 8.505 0 8 C-0.99 7.34 -1.98 6.68 -3 6 C-2.34 5.67 -1.68 5.34 -1 5 C-0.34444881 2.47266765 -0.34444881 2.47266765 0 0 Z " fill="#FFA4A4" transform="translate(317,189)"/>
<path d="M0 0 C3.96 0.33 7.92 0.66 12 1 C12 1.66 12 2.32 12 3 C8.04 3 4.08 3 0 3 C0 2.01 0 1.02 0 0 Z " fill="#FFEEEE" transform="translate(308,162)"/>
</svg>
